<?xml version="1.0" encoding="utf-8"?>
<!-- Generator: Adobe Illustrator 21.1.0, SVG Export Plug-In . SVG Version: 6.00 Build 0)  -->
<svg version="1.1" id="Layer_1" xmlns="http://www.w3.org/2000/svg" xmlns:xlink="http://www.w3.org/1999/xlink" x="0px" y="0px"
	 viewBox="0 0 150 250" enable-background="new 0 0 150 250" xml:space="preserve">
<g>
	<g>
		<path d="M89.1,244.4H60.9c-0.5,0-0.9-0.4-0.9-0.9c0-0.5,0.4-0.9,0.9-0.9h28.2c0.5,0,0.9,0.4,0.9,0.9C90,244,89.6,244.4,89.1,244.4
			z"/>
	</g>
	<path d="M95,165.1c0,0,0.1-0.1,0.1-0.1c25.8-6.4,43.2-24.4,43.2-44.7c0-0.5-0.4-0.9-0.9-0.9h-21.1c1-3.9,1.5-6.4,1.5-6.5
		c0-0.3,0-0.5-0.2-0.7c-0.2-0.2-0.4-0.3-0.7-0.3H33.2c-0.3,0-0.5,0.1-0.7,0.3c-0.2,0.2-0.2,0.5-0.2,0.7c0,0.1,0.5,2.6,1.5,6.5H12.6
		c-0.5,0-0.9,0.4-0.9,0.9c0,20.3,17.3,38.3,43.2,44.7c0,0,0.1,0.1,0.1,0.1c4.4,4.8,9.2,7.8,14.2,9.1c-0.2,22.9-3,43.8-7.7,57.8h-1.9
		c-0.5,0-0.9,0.4-0.9,0.9v4.1H43.3c-0.5,0-0.9,0.4-0.9,0.9v11.2c0,0.5,0.4,0.9,0.9,0.9h63.3c0.5,0,0.9-0.4,0.9-0.9v-11.2
		c0-0.5-0.4-0.9-0.9-0.9H91.2v-4.1c0-0.5-0.4-0.9-0.9-0.9h-1.9c-4.8-14.3-7.5-34.3-7.7-57.8C85.8,172.9,90.6,169.9,95,165.1z
		 M136.5,121.1c-0.5,18.5-16,34.8-39.3,41.4c1.1-1.4,2.3-2.9,3.4-4.6c5.9-2.1,11.3-4.9,16-8.4c8.9-6.6,14.5-14.9,16.1-23.9
		c0-0.3,0-0.5-0.2-0.7c-0.2-0.2-0.4-0.3-0.7-0.3h-16.9c0.3-1.2,0.6-2.3,0.9-3.4H136.5z M114.4,126.3h16.3c-1.8,8.2-7,15.7-15.2,21.7
		c-4,2.9-8.4,5.4-13.3,7.3c2.1-3.5,4.1-7.3,5.9-11.7C110.8,137.6,112.8,131.5,114.4,126.3z M41.9,143.7c1.9,4.3,3.9,8.2,5.9,11.7
		c-4.9-1.9-9.4-4.4-13.3-7.3c-8.2-6.1-13.4-13.6-15.2-21.7h16.3C37.2,131.5,39.2,137.6,41.9,143.7z M13.5,121.1h20.7
		c0.3,1.1,0.6,2.2,0.9,3.4H18.2c-0.3,0-0.5,0.1-0.7,0.3c-0.2,0.2-0.2,0.5-0.2,0.7c1.6,9,7.2,17.3,16.1,23.9c4.7,3.5,10.1,6.3,16,8.4
		c1.1,1.6,2.2,3.2,3.4,4.6C29.5,155.9,14,139.6,13.5,121.1z M34.3,113.6h81.5c-1.6,7.6-12.3,53.6-36.1,59.1c0,0,0,0,0,0
		c-1.5,0.3-3.1,0.5-4.7,0.5c-1.6,0-3.2-0.2-4.7-0.5c0,0,0,0,0,0C46.5,167.2,35.9,121.2,34.3,113.6z M105.8,248.2H44.2v-9.4h61.5
		V248.2z M89.4,237H60.6v-3.2h1.6c0,0,0,0,0,0c0,0,0,0,0,0h25.6c0,0,0,0,0,0l0,0h1.6V237z M86.6,232H63.4c4.6-14,7.3-34.7,7.6-57.4
		c1.3,0.2,2.6,0.3,4,0.3c1.3,0,2.7-0.1,4-0.3C79.2,197.9,81.8,217.6,86.6,232z"/>
	<g>
		<path d="M84,148.7c-0.2,0-0.4-0.1-0.5-0.2l-7.5-5.4l-7.5,5.4c-0.3,0.2-0.7,0.2-1.1,0c-0.3-0.2-0.4-0.6-0.3-1l2.8-8.8l-7.5-5.4
			c-0.3-0.2-0.4-0.6-0.3-1c0.1-0.4,0.5-0.6,0.9-0.6h9.2l2.8-8.8c0.1-0.4,0.5-0.6,0.9-0.6c0.4,0,0.7,0.3,0.9,0.6l2.8,8.8h9.2
			c0.4,0,0.7,0.3,0.9,0.6c0.1,0.4,0,0.8-0.3,1l-7.5,5.4l2.8,8.8c0.1,0.4,0,0.8-0.3,1C84.3,148.6,84.2,148.7,84,148.7z M76,141.1
			c0.2,0,0.4,0.1,0.5,0.2l5.7,4.2l-2.2-6.7c-0.1-0.4,0-0.8,0.3-1l5.7-4.2H79c-0.4,0-0.7-0.3-0.9-0.6l-2.2-6.7l-2.2,6.7
			c-0.1,0.4-0.5,0.6-0.9,0.6h-7.1l5.7,4.2c0.3,0.2,0.4,0.6,0.3,1l-2.2,6.7l5.7-4.2C75.6,141.1,75.8,141.1,76,141.1z"/>
	</g>
</g>
</svg>
