<?xml version="1.0" encoding="utf-8"?>
<!-- Generator: Adobe Illustrator 21.1.0, SVG Export Plug-In . SVG Version: 6.00 Build 0)  -->
<svg version="1.1" id="Layer_1" xmlns="http://www.w3.org/2000/svg" xmlns:xlink="http://www.w3.org/1999/xlink" x="0px" y="0px"
	 viewBox="0 0 150 250" enable-background="new 0 0 150 250" xml:space="preserve">
<g>
	<g>
		<g>
			<path d="M67.8,140.9c-0.2,0-0.4-0.1-0.5-0.2c-0.3-0.2-0.4-0.6-0.3-1l2.6-7.9l-6.7-4.9c-0.3-0.2-0.4-0.6-0.3-1
				c0.1-0.4,0.5-0.6,0.9-0.6h8.3l2.6-7.9c0.1-0.4,0.5-0.6,0.9-0.6c0.4,0,0.7,0.3,0.9,0.6l2.6,7.9h8.3c0.4,0,0.7,0.3,0.9,0.6
				c0.1,0.4,0,0.8-0.3,1l-6.7,4.9l2.6,7.9c0.1,0.4,0,0.8-0.3,1c-0.3,0.2-0.7,0.2-1.1,0l-6.7-4.9l-6.7,4.9
				C68.2,140.9,68,140.9,67.8,140.9z M75,133.9c0.2,0,0.4,0.1,0.5,0.2l5,3.6l-1.9-5.8c-0.1-0.4,0-0.8,0.3-1l5-3.6h-6.1
				c-0.4,0-0.7-0.3-0.9-0.6l-1.9-5.8l-1.9,5.8c-0.1,0.4-0.5,0.6-0.9,0.6h-6.1l5,3.6c0.3,0.2,0.4,0.6,0.3,1l-1.9,5.8l5-3.6
				C74.6,133.9,74.8,133.9,75,133.9z"/>
		</g>
	</g>
	<path d="M148.8,109.1h-31.5c0.2-2.7,0.3-5.5,0.3-8.4c0-0.5-0.4-0.9-0.9-0.9H33.3c-0.5,0-0.9,0.4-0.9,0.9c0,2.8,0.1,5.6,0.3,8.4H1.2
		c-0.5,0-0.9,0.4-0.9,0.9c0,16.9,10.3,33.2,29,45.9c7.2,4.9,16.1,11.7,28.8,22.1c4.6,8.2,8,14.8,8,19.5c0,5.4-3,8.9-4.8,10.5
		c-6.8,2.9-11.5,7.8-13.2,13.5h-6.3c-0.5,0-0.9,0.4-0.9,0.9v12.4h-5.1c-0.5,0-0.9,0.4-0.9,0.9v13.3c0,0.5,0.4,0.9,0.9,0.9h78.6
		c0.5,0,0.9-0.4,0.9-0.9v-13.3c0-0.5-0.4-0.9-0.9-0.9h-5.1v-12.4c0-0.5-0.4-0.9-0.9-0.9h-6.3c-1.6-5.7-6.4-10.6-13.1-13.5
		c-0.8-1-4.9-6.3-4.9-10.6c0-4.7,3.4-11.3,8-19.5c8.6-7,19.6-15.8,28.8-22.1c18.7-12.7,29-29,29-45.9
		C149.7,109.5,149.3,109.1,148.8,109.1z M116.3,117.2h24.4c-2.5,11.7-11,22.7-24.6,32c-4.1,2.8-8.8,6.2-14.2,10.4
		C108,147.6,113.9,133.5,116.3,117.2z M48.1,159.6c-5.5-4.2-10.1-7.6-14.2-10.4c-13.6-9.2-22.1-20.3-24.6-32h24.4
		C36.1,133.5,42,147.6,48.1,159.6z M2.1,110.9h30.8c0.1,1.5,0.3,3,0.5,4.5H8.1c-0.3,0-0.5,0.1-0.7,0.3c-0.2,0.2-0.2,0.5-0.2,0.7
		c2.3,12.6,11.2,24.4,25.6,34.2c4.8,3.3,10.4,7.4,17.2,12.8c1.9,3.6,3.8,7.1,5.6,10.3c-10.9-8.8-18.9-14.8-25.4-19.3
		C12.4,142.3,2.5,126.9,2.1,110.9z M113.4,248.2H36.6v-11.5h76.8V248.2z M107.4,234.9H42.6v-11.5h64.7V234.9z M87.6,209.4
		c0.1,0.1,0.2,0.2,0.3,0.3c6.1,2.6,10.5,6.9,12.1,11.9H50c1.6-5,6-9.3,12.1-11.9c0.1,0,0.2-0.1,0.3-0.2c2.1-1.8,5.5-5.8,5.5-12
		c0-5.8-4.4-13.7-10.1-23.7c-9.8-17.5-23.3-41.5-23.6-72.1h81.6c-0.3,30.7-13.7,54.6-23.6,72.1c-5.6,10-10.1,17.9-10.1,23.7
		C82.2,202.8,87.3,209.1,87.6,209.4z M119.7,154.4c-6.6,4.5-14.5,10.5-25.4,19.3c1.8-3.2,3.7-6.6,5.6-10.3
		c6.8-5.3,12.4-9.5,17.2-12.8c14.4-9.8,23.3-21.6,25.6-34.2c0-0.3,0-0.5-0.2-0.7c-0.2-0.2-0.4-0.3-0.7-0.3h-25.3
		c0.2-1.5,0.4-3,0.5-4.5h30.8C147.5,126.9,137.6,142.3,119.7,154.4z"/>
</g>
</svg>
